<svg width="25" height="24" viewBox="0 0 25 24" fill="none" xmlns="http://www.w3.org/2000/svg">
<path d="M12.9982 8.87579C11.2779 8.87579 9.87394 10.2797 9.87394 12C9.87394 13.7203 11.2779 15.1242 12.9982 15.1242C14.7185 15.1242 16.1224 13.7203 16.1224 12C16.1224 10.2797 14.7185 8.87579 12.9982 8.87579ZM22.3685 12C22.3685 10.7063 22.3802 9.42423 22.3075 8.13282C22.2349 6.63282 21.8927 5.30157 20.7958 4.2047C19.6966 3.10548 18.3677 2.76564 16.8677 2.69298C15.5739 2.62033 14.2919 2.63204 13.0005 2.63204C11.7068 2.63204 10.4247 2.62033 9.13332 2.69298C7.63332 2.76564 6.30207 3.10783 5.20519 4.2047C4.10597 5.30392 3.76613 6.63282 3.69347 8.13282C3.62081 9.42657 3.63253 10.7086 3.63253 12C3.63253 13.2914 3.62081 14.5758 3.69347 15.8672C3.76613 17.3672 4.10831 18.6984 5.20519 19.7953C6.30441 20.8945 7.63332 21.2344 9.13332 21.307C10.4271 21.3797 11.7091 21.368 13.0005 21.368C14.2943 21.368 15.5763 21.3797 16.8677 21.307C18.3677 21.2344 19.699 20.8922 20.7958 19.7953C21.895 18.6961 22.2349 17.3672 22.3075 15.8672C22.3825 14.5758 22.3685 13.2938 22.3685 12ZM12.9982 16.807C10.338 16.807 8.19113 14.6602 8.19113 12C8.19113 9.33985 10.338 7.19298 12.9982 7.19298C15.6583 7.19298 17.8052 9.33985 17.8052 12C17.8052 14.6602 15.6583 16.807 12.9982 16.807ZM18.0021 8.11876C17.381 8.11876 16.8794 7.6172 16.8794 6.99611C16.8794 6.37501 17.381 5.87345 18.0021 5.87345C18.6232 5.87345 19.1247 6.37501 19.1247 6.99611C19.1249 7.14359 19.096 7.28966 19.0397 7.42595C18.9833 7.56224 18.9006 7.68607 18.7963 7.79036C18.692 7.89464 18.5682 7.97733 18.4319 8.03368C18.2956 8.09003 18.1496 8.11895 18.0021 8.11876Z" fill="white"/>
</svg>
