<svg width="143" height="56" viewBox="0 0 143 56" fill="none" xmlns="http://www.w3.org/2000/svg">
<path d="M51.9628 6.7172C51.9628 7.59932 51.7894 8.4728 51.4525 9.28776C51.1157 10.1027 50.6219 10.8432 49.9995 11.467C49.3771 12.0907 48.6381 12.5855 47.8249 12.9231C47.0116 13.2607 46.14 13.4344 45.2597 13.4344C43.4819 13.4344 41.777 12.7267 40.5199 11.467C39.2629 10.2073 38.5566 8.49871 38.5566 6.7172C38.5566 4.93569 39.2629 3.22714 40.5199 1.96742C41.777 0.707704 43.4819 2.43236e-07 45.2597 0C46.14 -1.3382e-08 47.0116 0.173746 47.8249 0.511316C48.6381 0.848887 49.3771 1.34367 49.9995 1.96742C50.6219 2.59117 51.1157 3.33167 51.4525 4.14664C51.7894 4.96161 51.9628 5.83509 51.9628 6.7172Z" fill="white"/>
<path d="M36.5464 37.6613H40.8585V41.9824H36.5464V37.6613Z" fill="white"/>
<path d="M28.6973 14.1593C29.5337 13.4157 30.61 13.0064 31.728 13.0064C32.8459 13.0064 33.9223 13.4158 34.7587 14.1593L35.9605 15.2276V11.4106C35.9605 5.12717 30.8594 0.0153198 24.5891 0.0153198C19.0967 0.0153198 14.5014 3.93773 13.4458 9.13398C15.1724 11.7619 18.1982 16.8987 19.4924 22.3421L28.6973 14.1593Z" fill="white"/>
<path d="M50.5419 48.9937H48.4393V34.4781L49.4301 35.3589C49.7199 35.6166 50.0806 35.7433 50.4398 35.7432C50.8601 35.7432 51.2784 35.5698 51.5792 35.23C52.1372 34.5997 52.0796 33.6355 51.4506 33.0764L46.9878 29.1093V21.203C46.9878 20.3606 46.3062 19.6775 45.4654 19.6775C44.6247 19.6775 43.943 20.3606 43.943 21.203V26.4027L32.7378 16.4417C32.1614 15.9293 31.2938 15.9293 30.7174 16.4417L12.0048 33.0763C11.3758 33.6354 11.3183 34.5996 11.8761 35.2299C12.4341 35.8602 13.3964 35.9178 14.0252 35.3587L15.0161 34.4779V48.9935H10.1029V42.338C10.7532 42.1388 11.379 41.8117 11.9715 41.3634V38.6729C11.0615 38.4587 10.2295 37.9674 9.59863 37.2548C7.92759 35.3671 8.10057 32.4687 9.98423 30.794L16.8555 24.6859C15.6989 17.2917 10.0709 9.58234 9.80506 9.22176C9.51799 8.8325 9.06365 8.60278 8.58064 8.60278C8.09762 8.60278 7.64328 8.8325 7.35621 9.22176C7.05979 9.62373 0.0979255 19.159 0.0979255 27.2087C0.0979255 31.1377 0.879804 34.8554 2.29957 37.677C3.55196 40.166 5.20571 41.7716 7.05826 42.3381V48.9937H1.52237C0.681615 48.9937 0 49.6767 0 50.5192C0 51.3617 0.681615 52.0447 1.52237 52.0642H48.4394H50.542C51.3827 52.0447 52.0643 51.3617 52.0643 50.5192C52.0643 49.6767 51.3826 48.9937 50.5419 48.9937ZM33.5015 36.1358C33.5015 35.2933 34.1831 34.6103 35.0239 34.6103H42.3807C43.2215 34.6103 43.9031 35.2933 43.9031 36.1358V43.5081C43.9031 44.3506 43.2215 45.0336 42.3807 45.0336H35.0239C34.1831 45.0336 33.5015 44.3506 33.5015 43.5081V36.1358ZM25.1652 48.9937V37.6613H22.1205V48.9937H19.0759V36.1358C19.0759 35.2932 19.7575 34.6103 20.5982 34.6103H26.6876C27.5284 34.6103 28.21 35.2933 28.21 36.1358V48.9937H25.1652Z" fill="white"/>
<path d="M80.4569 45.584C80.0204 46.0205 79.4704 46.2387 78.8069 46.2387H78.6498C76.9037 46.2387 75.4371 45.6451 74.2498 44.4578C73.0625 43.2705 72.4688 41.8038 72.4688 40.0577V32.1482H66.3402V38.1982C66.3402 38.8617 66.1219 39.403 65.6854 39.822C65.2489 40.2585 64.6989 40.4768 64.0354 40.4768C63.3719 40.4768 62.8219 40.2585 62.3854 39.822C61.9664 39.403 61.7568 38.8617 61.7568 38.1982V23.0077C61.7568 22.3442 61.9664 21.8029 62.3854 21.3838C62.8219 20.9473 63.3719 20.7291 64.0354 20.7291C64.6989 20.7291 65.2489 20.9473 65.6854 21.3838C66.1219 21.8029 66.3402 22.3442 66.3402 23.0077V27.5648H72.4688V23.0077C72.4688 22.3442 72.6783 21.8029 73.0974 21.3838C73.5339 20.9473 74.0839 20.7291 74.7474 20.7291C75.4109 20.7291 75.9609 20.9473 76.3974 21.3838C76.8339 21.8029 77.0522 22.3442 77.0522 23.0077V40.0577C77.0522 40.5117 77.2006 40.8871 77.4974 41.1839C77.8117 41.4982 78.1958 41.6554 78.6498 41.6554H78.8069C79.4704 41.6554 80.0204 41.8736 80.4569 42.3101C80.8934 42.7466 81.1117 43.2966 81.1117 43.9601C81.1117 44.6236 80.8934 45.1649 80.4569 45.584Z" fill="white"/>
<path d="M84.595 40.5292C82.5521 40.5292 80.841 39.8395 79.4616 38.4601C78.0823 37.0633 77.3926 35.3434 77.3926 33.3006C77.3926 31.2577 78.0823 29.5466 79.4616 28.1672C80.841 26.7878 82.5521 26.0981 84.595 26.0981C86.6379 26.0981 88.349 26.7878 89.7284 28.1672C91.1252 29.5466 91.8236 31.2577 91.8236 33.3006C91.8236 35.3434 91.1252 37.0633 89.7284 38.4601C88.349 39.8395 86.6379 40.5292 84.595 40.5292ZM84.595 30.6815C83.8617 30.6815 83.2418 30.9347 82.7355 31.441C82.2291 31.9474 81.9759 32.5672 81.9759 33.3006C81.9759 34.0339 82.2291 34.6625 82.7355 35.1863C83.2418 35.6926 83.8617 35.9458 84.595 35.9458C85.3283 35.9458 85.9482 35.6926 86.4545 35.1863C86.9783 34.6625 87.2402 34.0339 87.2402 33.3006C87.2402 32.5672 86.9783 31.9474 86.4545 31.441C85.9482 30.9347 85.3283 30.6815 84.595 30.6815Z" fill="white"/>
<path d="M115.238 45.584C114.801 46.0205 114.251 46.2387 113.588 46.2387H113.483C111.737 46.2387 110.27 45.6451 109.083 44.4578C107.896 43.2705 107.302 41.8038 107.302 40.0577V32.2529C107.302 31.8164 107.145 31.4498 106.831 31.1529C106.534 30.8387 106.167 30.6815 105.731 30.6815C105.259 30.6815 104.875 30.8387 104.578 31.1529V38.1982C104.578 38.8617 104.36 39.403 103.924 39.822C103.487 40.2585 102.937 40.4768 102.274 40.4768C101.61 40.4768 101.06 40.2585 100.623 39.822C100.204 39.403 99.9949 38.8617 99.9949 38.1982V32.2529C99.9949 31.8164 99.8378 31.4498 99.5235 31.1529C99.2092 30.8387 98.8338 30.6815 98.3973 30.6815C97.9433 30.6815 97.5592 30.8299 97.2449 31.1267C96.9481 31.4236 96.7997 31.799 96.7997 32.2529V38.1982C96.7997 38.8617 96.5814 39.403 96.1449 39.822C95.7258 40.2585 95.1846 40.4768 94.5211 40.4768C93.8576 40.4768 93.3076 40.2585 92.8711 39.822C92.4346 39.403 92.2163 38.8617 92.2163 38.1982V32.2529C92.2163 30.5069 92.81 29.049 93.9973 27.8791C95.1846 26.6918 96.6513 26.0981 98.3973 26.0981C99.7592 26.0981 100.981 26.4997 102.064 27.3029C103.129 26.4997 104.351 26.0981 105.731 26.0981C107.477 26.0981 108.935 26.6918 110.104 27.8791C111.292 29.049 111.885 30.5069 111.885 32.2529V40.0577C111.885 40.5117 112.034 40.8871 112.331 41.1839C112.645 41.4982 113.029 41.6554 113.483 41.6554H113.588C114.251 41.6554 114.801 41.8736 115.238 42.3101C115.674 42.7466 115.893 43.2966 115.893 43.9601C115.893 44.6236 115.674 45.1649 115.238 45.584Z" fill="white"/>
<path d="M118.878 30.7339C118.285 30.8736 117.796 31.1879 117.412 31.6768C117.045 32.1482 116.862 32.6895 116.862 33.3006C116.862 34.0339 117.115 34.6625 117.621 35.1863C118.128 35.6926 118.747 35.9458 119.481 35.9458H121.812C122.475 35.9458 123.016 36.1641 123.436 36.6006C123.872 37.0196 124.09 37.5609 124.09 38.2244C124.09 38.8879 123.872 39.4379 123.436 39.8744C123.016 40.3109 122.475 40.5292 121.812 40.5292H119.481C117.438 40.5292 115.727 39.8395 114.347 38.4601C112.968 37.0633 112.278 35.3434 112.278 33.3006C112.278 31.2577 112.968 29.5466 114.347 28.1672C115.727 26.7878 117.438 26.0981 119.481 26.0981C121.541 26.0981 123.278 26.8315 124.693 28.2982C125.147 28.7696 125.374 29.2934 125.374 29.8696C125.374 30.6029 125.059 31.2141 124.431 31.7029L121.105 34.9506C120.616 35.422 120.083 35.6577 119.507 35.6577C118.861 35.6577 118.311 35.4307 117.857 34.9768C117.403 34.5053 117.176 33.9466 117.176 33.3006C117.176 32.8117 117.368 32.3315 117.752 31.8601L118.878 30.7339Z" fill="white"/>
<path d="M50 50.5C50 50.5 71.4871 52.829 93.1734 53.7368C107.394 54.332 121.134 54.5712 130.445 46.944C153.956 27.685 130.008 19.1095 130.008 19.1095C126.845 18.047 87.3384 9.28236 94.5303 5.97684C102.753 2.19774 154.107 4.71634 81.7719 19.59C78.656 20.2308 75.2899 14.0346 74.9794 22.2621" stroke="white" stroke-width="3" stroke-linecap="round"/>
</svg>
