<svg
   width="195"
   height="49"
   viewBox="0 0 195 49"
   fill="none"
   xmlns="http://www.w3.org/2000/svg"
>
   <path
      d="M72.064 29.624H78.912L77.952 35H64L68 12.344H75.104L72.064 29.624ZM91.6755 16.728C94.0648 16.728 95.9635 17.368 97.3715 18.648C98.7795 19.9067 99.4835 21.6347 99.4835 23.832C99.4835 24.4507 99.4195 25.112 99.2915 25.816C99.1422 26.52 99.0248 26.9893 98.9395 27.224H87.5475C87.5262 27.352 87.5155 27.5333 87.5155 27.768C87.5155 28.9627 88.0275 29.56 89.0515 29.56C89.8408 29.56 90.4595 29.208 90.9075 28.504H98.4275C97.9582 29.784 97.2222 30.936 96.2195 31.96C95.2168 32.9627 94.0328 33.7627 92.6675 34.36C91.3235 34.936 89.9048 35.224 88.4115 35.224C86.0222 35.224 84.1235 34.5947 82.7155 33.336C81.3288 32.056 80.6355 30.2853 80.6355 28.024C80.6355 27.3627 80.6995 26.68 80.8275 25.976C81.1688 24.0987 81.8515 22.4667 82.8755 21.08C83.8995 19.672 85.1688 18.5947 86.6835 17.848C88.2195 17.1013 89.8835 16.728 91.6755 16.728ZM92.3475 24.312C92.3688 24.2053 92.3795 24.0453 92.3795 23.832C92.3795 23.32 92.2195 22.936 91.8995 22.68C91.5795 22.424 91.1742 22.296 90.6835 22.296C89.4035 22.296 88.5395 22.968 88.0915 24.312H92.3475ZM100.546 25.976C100.888 24.0773 101.506 22.4347 102.402 21.048C103.298 19.64 104.376 18.5733 105.634 17.848C106.893 17.1013 108.226 16.728 109.634 16.728C110.808 16.728 111.778 16.9733 112.546 17.464C113.314 17.9333 113.848 18.584 114.146 19.416L114.594 16.952H121.666L118.466 35H111.394L111.842 32.536C111.245 33.368 110.477 34.0293 109.538 34.52C108.6 34.9893 107.544 35.224 106.37 35.224C104.557 35.224 103.096 34.616 101.986 33.4C100.877 32.184 100.322 30.4987 100.322 28.344C100.322 27.5333 100.397 26.744 100.546 25.976ZM112.994 25.976C113.037 25.784 113.058 25.528 113.058 25.208C113.058 24.4827 112.866 23.928 112.482 23.544C112.098 23.1387 111.576 22.936 110.914 22.936C110.146 22.936 109.464 23.2027 108.866 23.736C108.29 24.2693 107.917 25.016 107.746 25.976C107.704 26.168 107.682 26.424 107.682 26.744C107.682 27.4693 107.874 28.0347 108.258 28.44C108.642 28.824 109.165 29.016 109.826 29.016C110.594 29.016 111.266 28.7493 111.842 28.216C112.44 27.6827 112.824 26.936 112.994 25.976ZM131.384 20.28C132.302 19.2347 133.326 18.4027 134.456 17.784C135.608 17.144 136.75 16.824 137.88 16.824L136.568 24.408H134.552C133.208 24.408 132.174 24.6427 131.448 25.112C130.744 25.5813 130.286 26.4133 130.072 27.608L128.76 35H121.656L124.856 16.952H131.96L131.384 20.28ZM152.434 16.824C154.183 16.824 155.527 17.336 156.466 18.36C157.404 19.3627 157.874 20.7493 157.874 22.52C157.874 23.16 157.81 23.832 157.682 24.536L155.826 35H148.754L150.45 25.432C150.492 25.0907 150.514 24.856 150.514 24.728C150.514 24.0667 150.322 23.5547 149.938 23.192C149.575 22.8293 149.063 22.648 148.402 22.648C147.634 22.648 146.983 22.8933 146.45 23.384C145.916 23.8747 145.564 24.5467 145.394 25.4L143.698 35H136.594L139.794 16.952H146.898L146.418 19.672C147.122 18.8187 147.986 18.136 149.01 17.624C150.034 17.0907 151.175 16.824 152.434 16.824ZM170.394 16.728C172.784 16.728 174.682 17.368 176.09 18.648C177.498 19.9067 178.202 21.6347 178.202 23.832C178.202 24.4507 178.138 25.112 178.01 25.816C177.861 26.52 177.744 26.9893 177.658 27.224H166.266C166.245 27.352 166.234 27.5333 166.234 27.768C166.234 28.9627 166.746 29.56 167.77 29.56C168.56 29.56 169.178 29.208 169.626 28.504H177.146C176.677 29.784 175.941 30.936 174.938 31.96C173.936 32.9627 172.752 33.7627 171.386 34.36C170.042 34.936 168.624 35.224 167.13 35.224C164.741 35.224 162.842 34.5947 161.434 33.336C160.048 32.056 159.354 30.2853 159.354 28.024C159.354 27.3627 159.418 26.68 159.546 25.976C159.888 24.0987 160.57 22.4667 161.594 21.08C162.618 19.672 163.888 18.5947 165.402 17.848C166.938 17.1013 168.602 16.728 170.394 16.728ZM171.066 24.312C171.088 24.2053 171.098 24.0453 171.098 23.832C171.098 23.32 170.938 22.936 170.618 22.68C170.298 22.424 169.893 22.296 169.402 22.296C168.122 22.296 167.258 22.968 166.81 24.312H171.066ZM188.353 20.28C189.27 19.2347 190.294 18.4027 191.425 17.784C192.577 17.144 193.718 16.824 194.849 16.824L193.537 24.408H191.521C190.177 24.408 189.142 24.6427 188.417 25.112C187.713 25.5813 187.254 26.4133 187.041 27.608L185.729 35H178.625L181.825 16.952H188.929L188.353 20.28Z"
      fill="#2161DF"
   />
   <path
      d="M48.1492 7.55382L25.906 0.139416C25.3338 -0.046472 24.7174 -0.046472 24.1451 0.139416L1.94824 7.53065H1.9019L1.78605 7.57699L1.64703 7.6465L1.48484 7.71601L1.39216 7.76235L1.25314 7.85503L1.18363 7.90137L1.04461 7.99405C1.04461 8.00634 1.03973 8.01812 1.03104 8.02682C1.02235 8.03551 1.01056 8.04039 0.99827 8.04039L0.83608 8.17941C0.83608 8.18555 0.833639 8.19145 0.829293 8.19579C0.824948 8.20014 0.819055 8.20258 0.81291 8.20258L0.650719 8.38794L0.60438 8.45745C0.580182 8.47298 0.559457 8.49335 0.543507 8.51727C0.527558 8.54119 0.516729 8.56816 0.5117 8.59647L0.44219 8.66598L0.37268 8.78183C0.34951 8.82817 0.326339 8.85134 0.326339 8.87451L0.25683 9.01353L0.210489 9.10621L0.14098 9.31474C0.125291 9.34308 0.117302 9.37503 0.11781 9.40742C0.0920529 9.45799 0.0763172 9.51306 0.0714693 9.56961C0.0714693 9.59278 0.0482997 9.63912 0.0482997 9.66229C0.0482997 9.68546 0.0251296 9.77814 0.0251296 9.82448V9.91716C0.00376425 10.0082 -0.00404336 10.1019 0.00195951 10.1952V28.7312C0.00195951 29.4686 0.294894 30.1758 0.81632 30.6972C1.33775 31.2187 2.04495 31.5116 2.78236 31.5116C3.51977 31.5116 4.22697 31.2187 4.7484 30.6972C5.26983 30.1758 5.56276 29.4686 5.56276 28.7312V14.0414L11.0541 15.895C9.3587 19.1427 8.84996 22.8803 9.61556 26.463C10.3812 30.0457 12.3731 33.2489 15.2478 35.52C11.3146 37.3498 7.97473 40.2481 5.6091 43.8844C5.40828 44.1902 5.26966 44.5325 5.20115 44.8919C5.13264 45.2513 5.13558 45.6206 5.20981 45.9788C5.28403 46.3371 5.42809 46.6772 5.63376 46.9797C5.83943 47.2823 6.10267 47.5414 6.40847 47.7422C6.71426 47.943 7.05661 48.0816 7.41598 48.1501C7.77535 48.2187 8.14469 48.2157 8.50292 48.1415C8.86115 48.0673 9.20125 47.9232 9.50381 47.7175C9.80637 47.5119 10.0655 47.2486 10.2663 46.9428C11.8617 44.4802 14.0479 42.456 16.6258 41.0545C19.2037 39.653 22.0913 38.9188 25.0256 38.9188C27.9598 38.9188 30.8474 39.653 33.4253 41.0545C36.0032 42.456 38.1894 44.4802 39.7849 46.9428C40.0413 47.3284 40.3892 47.6445 40.7975 47.8628C41.2059 48.0812 41.662 48.1949 42.125 48.194C42.6589 48.1949 43.1817 48.0421 43.6311 47.7538C44.25 47.3468 44.6827 46.7114 44.8347 45.9864C44.9866 45.2613 44.8455 44.5056 44.442 43.8844C42.0764 40.2481 38.7365 37.3498 34.8033 35.52C37.678 33.2489 39.67 30.0457 40.4356 26.463C41.2012 22.8803 40.6924 19.1427 38.9971 15.895L48.1492 12.8366C48.7055 12.6537 49.1898 12.3 49.5332 11.8256C49.8766 11.3513 50.0614 10.7807 50.0614 10.1952C50.0614 9.60965 49.8766 9.03905 49.5332 8.56475C49.1898 8.09044 48.7055 7.73665 48.1492 7.55382ZM25.0256 5.70022L38.4873 10.1952L33.668 11.7939L25.0256 14.6902L16.3832 11.7939L11.5638 10.1952L25.0256 5.70022ZM35.2204 23.1704C35.2188 24.7527 34.8489 26.3129 34.14 27.7275C33.4312 29.1421 32.4028 30.3722 31.1362 31.3206C29.8697 32.269 28.3998 32.9096 26.8428 33.1916C25.2859 33.4737 23.6847 33.3895 22.1659 32.9456C20.6472 32.5018 19.2526 31.7106 18.0925 30.6345C16.9325 29.5585 16.0388 28.2272 15.4822 26.746C14.9257 25.2649 14.7215 23.6745 14.886 22.1008C15.0504 20.5271 15.5788 19.0133 16.4295 17.6791L24.1451 20.251C24.7174 20.4369 25.3338 20.4369 25.906 20.251L33.6216 17.6791C34.6712 19.3179 35.2262 21.2244 35.2204 23.1704Z"
      fill="#2161DF"
   />
</svg>
