<svg width="20" height="20" viewBox="0 0 20 20" fill="none" xmlns="http://www.w3.org/2000/svg">
<path d="M0 10.0018C0.000563232 12.3832 0.850471 14.6862 2.39696 16.497C3.94345 18.3078 6.08511 19.5076 8.437 19.8808V12.8918H5.9V10.0018H8.44V7.80184C8.38391 7.28693 8.44189 6.76598 8.60982 6.276C8.77775 5.78602 9.0515 5.33903 9.41164 4.96677C9.77178 4.59451 10.2095 4.30611 10.6936 4.12206C11.1778 3.93801 11.6965 3.86282 12.213 3.90184C12.963 3.91384 13.713 3.98084 14.453 4.10184V6.56084H13.189C12.9742 6.5327 12.7558 6.5532 12.5499 6.62082C12.3441 6.68844 12.1561 6.80145 11.9998 6.9515C11.8435 7.10156 11.7229 7.28481 11.647 7.48773C11.571 7.69065 11.5416 7.90804 11.561 8.12384V10.0018H14.332L13.889 12.8928H11.561V19.8808C13.4486 19.5825 15.2112 18.7496 16.6402 17.4806C18.0691 16.2116 19.1045 14.5598 19.6238 12.7207C20.143 10.8815 20.1244 8.93208 19.5702 7.10317C19.0159 5.27426 17.9492 3.64247 16.4964 2.40098C15.0435 1.15949 13.2653 0.360306 11.3724 0.0980407C9.4794 -0.164225 7.55092 0.121414 5.81525 0.92114C4.07958 1.72086 2.60942 3.00118 1.5788 4.61051C0.548194 6.21985 0.00030337 8.09079 0 10.0018Z" fill="white"/>
</svg>
