<svg width="80" height="82" viewBox="0 0 80 82" fill="none" xmlns="http://www.w3.org/2000/svg">
<ellipse cx="40" cy="40.8889" rx="40" ry="40.8889" fill="#1E1E1E"/>
<g clip-path="url(#clip0_45_201)">
<path d="M42.1176 53.9646C41.4871 53.491 41.4203 52.7793 41.4203 52.7793L41.1841 51.2354H33.6516L33.4146 52.7793C33.4146 52.7793 33.3487 53.491 32.7185 53.9646C32.0891 54.4387 31.5916 54.845 32.0891 54.9139C32.568 54.9796 37.0849 54.9198 37.4182 54.9139C37.7523 54.9198 42.2682 54.9796 42.7477 54.9139C43.244 54.845 42.7464 54.4396 42.1176 53.9646Z" fill="white"/>
<path d="M24.5964 41.0056C24.5964 40.2914 24.0296 39.712 23.3307 39.712H17.3205C16.6216 39.712 16.0547 40.2914 16.0547 41.0056V54.5871C16.0547 55.3022 16.6216 55.881 17.3205 55.881H23.3312C24.0297 55.881 24.5969 55.3022 24.5969 54.5871V41.0056H24.5964ZM19.6978 41.1676H20.9633C21.0508 41.1676 21.1215 41.2397 21.1215 41.3285C21.1215 41.4181 21.0508 41.4909 20.9633 41.4909H19.6978C19.6104 41.4909 19.5394 41.4176 19.5394 41.3285C19.5395 41.2387 19.6105 41.1676 19.6978 41.1676ZM20.2778 55.116C19.9282 55.116 19.6446 54.8266 19.6446 54.469C19.6446 54.1119 19.9282 53.8219 20.2778 53.8219C20.6272 53.8219 20.9105 54.1109 20.9105 54.469C20.9105 54.8266 20.6277 55.116 20.2778 55.116ZM23.8058 53.2943H16.8456V42.4605H23.8059L23.8058 53.2943Z" fill="white"/>
<path d="M64.1704 32.2718H51.1532C50.173 32.2718 49.3784 33.0836 49.3784 34.0859V53.1306C49.3784 54.1328 50.1731 54.9456 51.1532 54.9456H64.1704C65.1513 54.9456 65.9453 54.1328 65.9453 53.1306V34.0855C65.9448 33.0832 65.1508 32.2718 64.1704 32.2718ZM55.1132 53.9361C54.6232 53.9361 54.2251 53.5308 54.2251 53.0302C54.2251 52.5292 54.6232 52.1229 55.1132 52.1229C55.6025 52.1229 55.999 52.5292 55.999 53.0302C55.9992 53.5308 55.6025 53.9361 55.1132 53.9361ZM57.6614 53.9361C57.1722 53.9361 56.7746 53.5308 56.7746 53.0302C56.7746 52.5292 57.1722 52.1229 57.6614 52.1229C58.1521 52.1229 58.5485 52.5292 58.5485 53.0302C58.5485 53.5308 58.1526 53.9361 57.6614 53.9361ZM60.212 53.9361C59.7213 53.9361 59.3248 53.5308 59.3248 53.0302C59.3248 52.5292 59.7213 52.1229 60.212 52.1229C60.7016 52.1229 61.0987 52.5292 61.0987 53.0302C61.0987 53.5308 60.7016 53.9361 60.212 53.9361ZM64.836 51.3159H50.4877V33.8583H64.836V51.3159Z" fill="white"/>
<path d="M53.4178 30.7419H55.5996V26.703C55.5996 25.8812 54.9482 25.2158 54.1448 25.2158H20.691C19.8878 25.2158 19.2362 25.8812 19.2362 26.703V38.1826H21.4184V27.446H53.4178V30.7419Z" fill="white"/>
<path d="M26.0933 45.2878V49.7482H47.8818V45.2878H26.0933ZM37.4176 48.538C36.8669 48.538 36.4198 48.0809 36.4198 47.518C36.4198 46.9553 36.8669 46.4981 37.4176 46.4981C37.9684 46.4981 38.4154 46.9553 38.4154 47.518C38.4154 48.0807 37.9684 48.538 37.4176 48.538Z" fill="white"/>
</g>
<defs>
<clipPath id="clip0_45_201">
<rect width="62" height="63.3778" fill="white" transform="translate(10 8.8595)"/>
</clipPath>
</defs>
</svg>
