<svg width="80" height="80" viewBox="0 0 80 80" fill="none" xmlns="http://www.w3.org/2000/svg">
<circle cx="40.315" cy="40.3149" r="37.7953" fill="#1E1E1E"/>
<g clip-path="url(#clip0_45_216)">
<path d="M36.8142 43.5142V45.8772L28.4122 42.2364V40.2152L36.8142 36.5736V38.9539L30.9598 41.2092L36.8142 43.5142Z" fill="white"/>
<path d="M42.0084 36.5236L39.6691 46.153C39.592 46.4705 39.5236 46.7221 39.4655 46.9051C39.4074 47.089 39.3186 47.2319 39.1983 47.3341C39.078 47.4386 38.9044 47.4888 38.6758 47.4888C38.1092 47.4888 37.8239 47.2429 37.8239 46.7541C37.8239 46.6262 37.8797 46.3063 37.9913 45.7938L40.322 36.1643C40.4438 35.6527 40.5608 35.3021 40.6716 35.1129C40.7841 34.9227 41.0008 34.8285 41.3239 34.8285C41.6028 34.8285 41.8152 34.8952 41.9628 35.0296C42.1097 35.1632 42.1836 35.3479 42.1836 35.5805C42.1838 35.7527 42.1249 36.0669 42.0084 36.5236Z" fill="white"/>
<path d="M51.5878 42.2366L43.1858 45.8945V43.5308L49.0567 41.2259L43.1858 38.9549V36.6077L51.5878 40.2311V42.2366Z" fill="white"/>
<path d="M56.995 23.005H23.0048C21.7247 23.005 20.6873 24.0431 20.6873 25.3224V54.6778C20.6873 55.9572 21.7247 56.9952 23.0048 56.9952H56.995C58.275 56.9952 59.3123 55.957 59.3123 54.6778V25.3224C59.3123 24.0422 58.2751 23.005 56.995 23.005ZM51.2011 24.5498C52.0529 24.5498 52.7453 25.243 52.7453 26.0956C52.7453 26.9475 52.0529 27.6406 51.2011 27.6406C50.3493 27.6406 49.6561 26.9475 49.6561 26.0956C49.6562 25.243 50.3493 24.5498 51.2011 24.5498ZM46.9522 24.5498C47.804 24.5498 48.4979 25.243 48.4979 26.0956C48.4979 26.9475 47.8042 27.6406 46.9522 27.6406C46.1001 27.6406 45.4079 26.9475 45.4079 26.0956C45.4079 25.243 46.1003 24.5498 46.9522 24.5498ZM56.995 54.6778H23.0048V29.1847H56.995V54.6778ZM55.4501 27.6406C54.5992 27.6406 53.9044 26.9475 53.9044 26.0956C53.9044 25.243 54.599 24.5498 55.4501 24.5498C56.3012 24.5498 56.9951 25.243 56.9951 26.0956C56.995 26.9475 56.3012 27.6406 55.4501 27.6406Z" fill="white"/>
</g>
<defs>
<clipPath id="clip0_45_216">
<rect width="80" height="80" fill="white"/>
</clipPath>
</defs>
</svg>
