<svg width="80" height="80" viewBox="0 0 80 80" fill="none" xmlns="http://www.w3.org/2000/svg">
<circle cx="40" cy="40" r="40" fill="#1E1E1E"/>
<g clip-path="url(#clip0_45_240)">
<path d="M26.4896 59.3732L29.3309 57.1814L32.5653 58.7384L31.3561 55.3703L33.8418 52.7864L30.2556 52.8984L28.556 49.7431L27.549 53.1822L24.0114 53.817L26.98 55.8334L26.4896 59.3732ZM39.6667 62.6667L41.0256 59.3508L44.6043 59.0857L41.8679 56.7706L42.7251 53.2905L39.6704 55.1762L36.6157 53.2905L37.473 56.7706L34.729 59.0857L38.3078 59.3508L39.6667 62.6667ZM29.0838 37.5925C30.746 36.9727 32.8685 36.1811 34.3959 35.2364C36.1478 36.8569 37.2858 38.7016 37.3757 40.942H41.9727C42.0625 38.7016 43.2005 36.8569 44.9525 35.2364C46.4798 36.1811 48.6024 36.969 50.2645 37.5925C55.161 39.4185 52.7689 42.753 49.9126 45.561C47.2922 48.1338 43.6722 49.7245 39.6704 49.7245C35.6686 49.7245 32.0524 48.1375 29.4282 45.561C26.6131 42.7941 24.1537 39.4297 29.0838 37.5925ZM36.0655 32.9586C36.1403 32.3462 34.3285 30.0274 33.999 28.9109C33.2878 27.7907 33.037 25.9983 33.8119 24.8109C34.1226 24.3404 33.9878 23.4965 33.9878 22.8505C33.9878 16.3869 45.3418 16.3794 45.3418 22.8505C45.3418 23.6683 45.1546 24.2919 45.6001 24.9341C46.3451 26.0095 45.9595 27.9176 45.3306 28.9184C44.93 30.0871 43.0283 32.3014 43.1631 32.9661C43.2754 36.2782 36.0392 36.1699 36.0655 32.9586ZM62.6667 49.5714L60.4693 46.741L62.0303 43.5147L58.6499 44.7246L56.0594 42.2452L56.1717 45.8224L53.0085 47.5176L56.4562 48.5184L57.0926 52.047L59.1104 49.0859L62.6667 49.5714ZM52.8438 59.3732L52.3609 55.8222L55.3294 53.8058L51.7956 53.1673L50.7923 49.7282L49.0928 52.8835L45.5028 52.7714L47.9885 55.3554L46.7681 58.731L50.0025 57.1739L52.8438 59.3732ZM16.6667 49.5676L20.2267 49.0859L22.2482 52.047L22.8884 48.5221L26.3361 47.5214L23.1729 45.8261L23.2852 42.2489L20.6909 44.7283L17.3031 43.5147L18.8641 46.741L16.6667 49.5676Z" fill="white"/>
</g>
<defs>
<clipPath id="clip0_45_240">
<rect width="46" height="44.6667" fill="white" transform="translate(16.6667 18)"/>
</clipPath>
</defs>
</svg>
