<svg width="80" height="80" viewBox="0 0 80 80" fill="none" xmlns="http://www.w3.org/2000/svg">
<circle cx="40" cy="40" r="40" fill="#1E1E1E"/>
<path d="M47.2232 23.8256C43.2012 27.8373 39.8684 31.1289 39.817 31.1289C39.7553 31.1289 39.1587 30.5735 38.4798 29.8843C37.8009 29.2054 35.8259 27.251 34.0772 25.5537L30.9192 22.4575L24.8708 20.575C21.5482 19.5361 18.7503 18.6823 18.6475 18.6823C18.38 18.6823 17.9583 19.1452 17.9583 19.4332C17.9583 19.567 18.8018 22.3752 19.8407 25.6874L21.7231 31.705L25.416 35.3567C27.4527 37.3625 29.4585 39.3273 29.87 39.7181L30.6209 40.4279L24.233 46.8158C18.6475 52.4013 17.8554 53.2345 17.8554 53.502C17.8554 53.7694 18.4109 54.3661 22.1551 58.1103C26.1566 62.1118 26.4652 62.3998 26.8046 62.3998C27.1338 62.3998 27.5555 61.9986 33.5525 56.0016L39.961 49.6137L40.6193 50.2206C40.9794 50.5498 43.2938 52.7922 45.7626 55.1993C48.2416 57.6063 50.3709 59.6122 50.4943 59.6739C50.6281 59.7253 50.9161 59.9207 51.1424 60.0956C51.7081 60.5482 52.6751 61.0214 53.4568 61.2168C54.4546 61.474 56.1416 61.3917 57.1497 61.0317C58.7441 60.4659 60.0299 59.283 60.7602 57.7194C61.2231 56.7217 61.3671 56.0633 61.3671 55.0038C61.3671 53.6357 60.9145 52.247 60.1122 51.1978C59.927 50.951 59.6802 50.6218 59.567 50.4572C59.4538 50.3029 57.304 48.2045 54.7838 45.7872C52.2636 43.3698 49.98 41.1685 49.692 40.8908L49.1777 40.3868L56.4605 33.1039C63.301 26.2635 63.733 25.8006 63.733 25.4714C63.733 25.1319 63.445 24.8233 59.4333 20.8116C55.6993 17.0776 55.1027 16.5222 54.8352 16.5222C54.5678 16.5222 53.6214 17.4274 47.2232 23.8256ZM58.4149 21.9534L61.8815 25.42L54.9484 32.353L48.0256 39.2758L44.4871 35.7784L40.9485 32.2707L42.9029 30.3163C43.9727 29.2362 44.8985 28.3516 44.9602 28.3516C45.0117 28.3516 45.8757 29.1539 46.8632 30.1414C47.9844 31.2627 48.7662 31.9622 48.9411 32.0033C49.1674 32.065 49.2805 32.0136 49.5377 31.7667C49.7023 31.5918 49.8463 31.345 49.8463 31.2215C49.8463 31.0569 49.3011 30.4398 47.9947 29.1231C46.9764 28.1047 46.1432 27.2201 46.1432 27.1687C46.1432 27.1069 46.8632 26.3457 47.7376 25.4714L49.332 23.877L51.2144 25.7594C52.7779 27.3127 53.1483 27.6316 53.3951 27.6316C53.7963 27.6316 54.1666 27.2612 54.1666 26.8704C54.1666 26.5926 53.9095 26.2943 52.2945 24.6793L50.4121 22.7969L52.5722 20.6368C53.7552 19.4435 54.7735 18.4766 54.8352 18.4766C54.8969 18.4766 56.5016 20.0401 58.4149 21.9534ZM24.7885 22.19C27.3395 22.9821 29.4585 23.6713 29.4894 23.7021C29.5717 23.7844 29.0574 25.5331 28.9134 25.6566C28.8619 25.708 28.1933 25.924 27.4424 26.14C26.4755 26.4178 26.0126 26.6029 25.8994 26.7572C25.7966 26.8806 25.5394 27.6007 25.3234 28.3722L24.9222 29.7608L23.945 30.0386C23.4101 30.1929 22.9575 30.2957 22.9369 30.2752C22.9163 30.2649 22.2786 28.2282 21.5071 25.78C20.7459 23.3215 20.067 21.1819 20.0156 21.0174C19.9538 20.8322 19.9538 20.7396 20.0361 20.7396C20.0876 20.7396 22.2272 21.3877 24.7885 22.19ZM45.5363 39.0084C47.3775 40.8085 50.8852 44.2133 53.3231 46.5586L57.7669 50.8275L54.29 54.3043C52.3871 56.2073 50.7721 57.7606 50.7104 57.7503C50.5869 57.7194 39.9096 47.361 30.0654 37.7226L23.9141 31.6947L24.9942 31.3553C25.776 31.1187 26.1154 30.9644 26.1977 30.7998C26.2594 30.6866 26.4857 29.9872 26.7018 29.2568C26.9178 28.5265 27.1132 27.9093 27.1338 27.8887C27.1544 27.8784 27.8127 27.6624 28.6048 27.4258C29.3968 27.1892 30.1066 26.9526 30.1683 26.8909C30.2403 26.8292 30.3946 26.4589 30.518 26.0474C30.6312 25.6463 30.7752 25.1628 30.8369 24.9776L30.9398 24.6382L36.5562 30.1826C39.6524 33.2274 43.695 37.198 45.5363 39.0084ZM35.3424 45.0671L38.8398 48.4616L32.8016 54.4998L26.7532 60.5482L23.2867 57.0817C21.3734 55.1684 19.8098 53.5637 19.8098 53.502C19.8098 53.4403 20.4579 52.7511 21.2499 51.959L22.69 50.5189L24.5725 52.4013C26.1463 53.9752 26.496 54.2735 26.7429 54.2735C27.1544 54.2735 27.5247 53.9135 27.5247 53.5123C27.5247 53.2551 27.2469 52.926 25.6525 51.3213L23.7701 49.4388L25.2102 47.9987L26.6503 46.5586L28.5122 48.4205C30.1477 50.056 30.4049 50.272 30.7135 50.2823C30.9706 50.2926 31.1147 50.2206 31.2998 50.0149C31.7627 49.4697 31.701 49.3668 29.5511 47.1964L27.7818 45.4271L29.6848 43.5241C30.7341 42.4749 31.6393 41.6314 31.7113 41.6417C31.7833 41.6623 33.4085 43.195 35.3424 45.0671ZM59.2378 52.7099C60.7294 55.4461 59.2173 58.8715 56.1725 59.6842C55.1541 59.9619 53.8066 59.8076 52.7985 59.3036C51.8316 58.8098 51.6053 59.1493 55.3701 55.3844C57.6846 53.07 58.7749 52.0516 58.847 52.1133C58.919 52.1648 59.0835 52.4322 59.2378 52.7099Z" fill="white"/>
</svg>
