<?xml version="1.0" standalone="no"?>
<!DOCTYPE svg PUBLIC "-//W3C//DTD SVG 20010904//EN"
 "http://www.w3.org/TR/2001/REC-SVG-20010904/DTD/svg10.dtd">
<svg version="1.0" xmlns="http://www.w3.org/2000/svg"
 width="512.000000pt" height="512.000000pt" viewBox="0 0 512.000000 512.000000"
 preserveAspectRatio="xMidYMid meet" fill="white">

<g transform="translate(0.000000,512.000000) scale(0.100000,-0.100000)"
fill="white" stroke="none">
<path d="M3165 4100 c-391 -390 -715 -710 -720 -710 -6 0 -64 54 -130 121 -66
66 -258 256 -428 421 l-307 301 -588 183 c-323 101 -595 184 -605 184 -26 0
-67 -45 -67 -73 0 -13 82 -286 183 -608 l183 -585 359 -355 c198 -195 393
-386 433 -424 l73 -69 -621 -621 c-543 -543 -620 -624 -620 -650 0 -26 54 -84
418 -448 389 -389 419 -417 452 -417 32 0 73 39 656 622 l623 621 64 -59 c35
-32 260 -250 500 -484 241 -234 448 -429 460 -435 13 -5 41 -24 63 -41 55 -44
149 -90 225 -109 97 -25 261 -17 359 18 155 55 280 170 351 322 45 97 59 161
59 264 0 133 -44 268 -122 370 -18 24 -42 56 -53 72 -11 15 -220 219 -465 454
-245 235 -467 449 -495 476 l-50 49 708 708 c665 665 707 710 707 742 0 33
-28 63 -418 453 -363 363 -421 417 -447 417 -26 0 -118 -88 -740 -710z m1088
182 l337 -337 -674 -674 -673 -673 -344 340 -344 341 190 190 c104 105 194
191 200 191 5 0 89 -78 185 -174 109 -109 185 -177 202 -181 22 -6 33 -1 58
23 16 17 30 41 30 53 0 16 -53 76 -180 204 -99 99 -180 185 -180 190 0 6 70
80 155 165 l155 155 183 -183 c152 -151 188 -182 212 -182 39 0 75 36 75 74 0
27 -25 56 -182 213 l-183 183 210 210 c115 116 214 210 220 210 6 0 162 -152
348 -338z m-3269 -23 c248 -77 454 -144 457 -147 8 -8 -42 -178 -56 -190 -5
-5 -70 -26 -143 -47 -94 -27 -139 -45 -150 -60 -10 -12 -35 -82 -56 -157 l-39
-135 -95 -27 c-52 -15 -96 -25 -98 -23 -2 1 -64 199 -139 437 -74 239 -140
447 -145 463 -6 18 -6 27 2 27 5 0 213 -63 462 -141z m2017 -1635 c179 -175
520 -506 757 -734 l432 -415 -338 -338 c-185 -185 -342 -336 -348 -335 -12 3
-1050 1010 -2007 1947 l-598 586 105 33 c76 23 109 38 117 54 6 11 28 79 49
150 21 71 40 131 42 133 2 1 66 22 143 45 77 23 146 46 152 52 7 6 22 42 34
82 11 39 25 86 31 104 l10 33 546 -539 c301 -296 694 -682 873 -858z m-991
-589 l340 -330 -587 -587 -588 -588 -337 337 c-186 186 -338 342 -338 348 0 6
63 73 140 150 l140 140 183 -183 c153 -153 187 -182 211 -182 40 0 76 35 76
74 0 25 -27 57 -182 213 l-183 183 140 140 140 140 181 -181 c159 -159 184
-180 214 -181 25 -1 39 6 57 26 45 53 39 63 -170 274 l-172 172 185 185 c102
102 190 184 197 183 7 -2 165 -151 353 -333z m2323 -743 c145 -266 -2 -599
-298 -678 -99 -27 -230 -12 -328 37 -94 48 -116 15 250 381 225 225 331 324
338 318 7 -5 23 -31 38 -58z"/>
</g>
</svg>
